<svg version="1.1" xmlns="http://www.w3.org/2000/svg" xmlns:xlink="http://www.w3.org/1999/xlink" width="1532" height="964"><defs/><g transform="scale(1,1)"><rect fill="rgb(255,255,255)" stroke="none" x="0" y="0" width="1532" height="964" fill-opacity="1"/><path fill="none" stroke="rgb(192,192,192)" paint-order="fill stroke markers" d=" M 29.5 0.5 L 29.5 964.5 M 29.5 0.5 L 29.5 964.5 M 89.5 0.5 L 89.5 964.5 M 150.5 0.5 L 150.5 964.5 M 211.5 0.5 L 211.5 964.5 M 272.5 0.5 L 272.5 964.5 M 332.5 0.5 L 332.5 964.5 M 393.5 0.5 L 393.5 964.5 M 454.5 0.5 L 454.5 964.5 M 514.5 0.5 L 514.5 964.5 M 575.5 0.5 L 575.5 964.5 M 696.5 0.5 L 696.5 964.5 M 757.5 0.5 L 757.5 964.5 M 818.5 0.5 L 818.5 964.5 M 878.5 0.5 L 878.5 964.5 M 939.5 0.5 L 939.5 964.5 M 1000.5 0.5 L 1000.5 964.5 M 1060.5 0.5 L 1060.5 964.5 M 1121.5 0.5 L 1121.5 964.5 M 1182.5 0.5 L 1182.5 964.5 M 1242.5 0.5 L 1242.5 964.5 M 1303.5 0.5 L 1303.5 964.5 M 1364.5 0.5 L 1364.5 964.5 M 1424.5 0.5 L 1424.5 964.5 M 1485.5 0.5 L 1485.5 964.5" stroke-opacity="1" stroke-linecap="round" stroke-linejoin="round" stroke-miterlimit="10"/><path fill="none" stroke="rgb(192,192,192)" paint-order="fill stroke markers" d=" M 5.5 0.5 L 5.5 964.5 M 17.5 0.5 L 17.5 964.5 M 41.5 0.5 L 41.5 964.5 M 53.5 0.5 L 53.5 964.5 M 65.5 0.5 L 65.5 964.5 M 77.5 0.5 L 77.5 964.5 M 102.5 0.5 L 102.5 964.5 M 114.5 0.5 L 114.5 964.5 M 126.5 0.5 L 126.5 964.5 M 138.5 0.5 L 138.5 964.5 M 162.5 0.5 L 162.5 964.5 M 174.5 0.5 L 174.5 964.5 M 187.5 0.5 L 187.5 964.5 M 199.5 0.5 L 199.5 964.5 M 223.5 0.5 L 223.5 964.5 M 235.5 0.5 L 235.5 964.5 M 247.5 0.5 L 247.5 964.5 M 259.5 0.5 L 259.5 964.5 M 284.5 0.5 L 284.5 964.5 M 296.5 0.5 L 296.5 964.5 M 308.5 0.5 L 308.5 964.5 M 320.5 0.5 L 320.5 964.5 M 344.5 0.5 L 344.5 964.5 M 356.5 0.5 L 356.5 964.5 M 369.5 0.5 L 369.5 964.5 M 381.5 0.5 L 381.5 964.5 M 405.5 0.5 L 405.5 964.5 M 417.5 0.5 L 417.5 964.5 M 429.5 0.5 L 429.5 964.5 M 441.5 0.5 L 441.5 964.5 M 466.5 0.5 L 466.5 964.5 M 478.5 0.5 L 478.5 964.5 M 490.5 0.5 L 490.5 964.5 M 502.5 0.5 L 502.5 964.5 M 526.5 0.5 L 526.5 964.5 M 539.5 0.5 L 539.5 964.5 M 551.5 0.5 L 551.5 964.5 M 563.5 0.5 L 563.5 964.5 M 587.5 0.5 L 587.5 964.5 M 599.5 0.5 L 599.5 964.5 M 611.5 0.5 L 611.5 964.5 M 623.5 0.5 L 623.5 964.5 M 648.5 0.5 L 648.5 964.5 M 660.5 0.5 L 660.5 964.5 M 672.5 0.5 L 672.5 964.5 M 684.5 0.5 L 684.5 964.5 M 708.5 0.5 L 708.5 964.5 M 721.5 0.5 L 721.5 964.5 M 733.5 0.5 L 733.5 964.5 M 745.5 0.5 L 745.5 964.5 M 769.5 0.5 L 769.5 964.5 M 781.5 0.5 L 781.5 964.5 M 793.5 0.5 L 793.5 964.5 M 805.5 0.5 L 805.5 964.5 M 830.5 0.5 L 830.5 964.5 M 842.5 0.5 L 842.5 964.5 M 854.5 0.5 L 854.5 964.5 M 866.5 0.5 L 866.5 964.5 M 890.5 0.5 L 890.5 964.5 M 903.5 0.5 L 903.5 964.5 M 915.5 0.5 L 915.5 964.5 M 927.5 0.5 L 927.5 964.5 M 951.5 0.5 L 951.5 964.5 M 963.5 0.5 L 963.5 964.5 M 975.5 0.5 L 975.5 964.5 M 988.5 0.5 L 988.5 964.5 M 1012.5 0.5 L 1012.5 964.5 M 1024.5 0.5 L 1024.5 964.5 M 1036.5 0.5 L 1036.5 964.5 M 1048.5 0.5 L 1048.5 964.5 M 1072.5 0.5 L 1072.5 964.5 M 1085.5 0.5 L 1085.5 964.5 M 1097.5 0.5 L 1097.5 964.5 M 1109.5 0.5 L 1109.5 964.5 M 1133.5 0.5 L 1133.5 964.5 M 1145.5 0.5 L 1145.5 964.5 M 1157.5 0.5 L 1157.5 964.5 M 1170.5 0.5 L 1170.5 964.5 M 1194.5 0.5 L 1194.5 964.5 M 1206.5 0.5 L 1206.5 964.5 M 1218.5 0.5 L 1218.5 964.5 M 1230.5 0.5 L 1230.5 964.5 M 1255.5 0.5 L 1255.5 964.5 M 1267.5 0.5 L 1267.5 964.5 M 1279.5 0.5 L 1279.5 964.5 M 1291.5 0.5 L 1291.5 964.5 M 1315.5 0.5 L 1315.5 964.5 M 1327.5 0.5 L 1327.5 964.5 M 1339.5 0.5 L 1339.5 964.5 M 1352.5 0.5 L 1352.5 964.5 M 1376.5 0.5 L 1376.5 964.5 M 1388.5 0.5 L 1388.5 964.5 M 1400.5 0.5 L 1400.5 964.5 M 1412.5 0.5 L 1412.5 964.5 M 1437.5 0.5 L 1437.5 964.5 M 1449.5 0.5 L 1449.5 964.5 M 1461.5 0.5 L 1461.5 964.5 M 1473.5 0.5 L 1473.5 964.5 M 1497.5 0.5 L 1497.5 964.5 M 1509.5 0.5 L 1509.5 964.5 M 1522.5 0.5 L 1522.5 964.5" stroke-opacity="0.23529411764705882" stroke-linecap="round" stroke-linejoin="round" stroke-miterlimit="10"/><path fill="none" stroke="rgb(192,192,192)" paint-order="fill stroke markers" d=" M 0.5 29.5 L 1532.5 29.5 M 0.5 29.5 L 1532.5 29.5 M 0.5 89.5 L 1532.5 89.5 M 0.5 150.5 L 1532.5 150.5 M 0.5 211.5 L 1532.5 211.5 M 0.5 271.5 L 1532.5 271.5 M 0.5 332.5 L 1532.5 332.5 M 0.5 393.5 L 1532.5 393.5 M 0.5 453.5 L 1532.5 453.5 M 0.5 514.5 L 1532.5 514.5 M 0.5 575.5 L 1532.5 575.5 M 0.5 696.5 L 1532.5 696.5 M 0.5 757.5 L 1532.5 757.5 M 0.5 817.5 L 1532.5 817.5 M 0.5 878.5 L 1532.5 878.5 M 0.5 939.5 L 1532.5 939.5" stroke-opacity="1" stroke-linecap="round" stroke-linejoin="round" stroke-miterlimit="10"/><path fill="none" stroke="rgb(192,192,192)" paint-order="fill stroke markers" d=" M 0.5 4.5 L 1532.5 4.5 M 0.5 4.5 L 1532.5 4.5 M 0.5 16.5 L 1532.5 16.5 M 0.5 41.5 L 1532.5 41.5 M 0.5 53.5 L 1532.5 53.5 M 0.5 65.5 L 1532.5 65.5 M 0.5 77.5 L 1532.5 77.5 M 0.5 101.5 L 1532.5 101.5 M 0.5 114.5 L 1532.5 114.5 M 0.5 126.5 L 1532.5 126.5 M 0.5 138.5 L 1532.5 138.5 M 0.5 162.5 L 1532.5 162.5 M 0.5 174.5 L 1532.5 174.5 M 0.5 186.5 L 1532.5 186.5 M 0.5 198.5 L 1532.5 198.5 M 0.5 223.5 L 1532.5 223.5 M 0.5 235.5 L 1532.5 235.5 M 0.5 247.5 L 1532.5 247.5 M 0.5 259.5 L 1532.5 259.5 M 0.5 283.5 L 1532.5 283.5 M 0.5 296.5 L 1532.5 296.5 M 0.5 308.5 L 1532.5 308.5 M 0.5 320.5 L 1532.5 320.5 M 0.5 344.5 L 1532.5 344.5 M 0.5 356.5 L 1532.5 356.5 M 0.5 368.5 L 1532.5 368.5 M 0.5 380.5 L 1532.5 380.5 M 0.5 405.5 L 1532.5 405.5 M 0.5 417.5 L 1532.5 417.5 M 0.5 429.5 L 1532.5 429.5 M 0.5 441.5 L 1532.5 441.5 M 0.5 465.5 L 1532.5 465.5 M 0.5 478.5 L 1532.5 478.5 M 0.5 490.5 L 1532.5 490.5 M 0.5 502.5 L 1532.5 502.5 M 0.5 526.5 L 1532.5 526.5 M 0.5 538.5 L 1532.5 538.5 M 0.5 550.5 L 1532.5 550.5 M 0.5 563.5 L 1532.5 563.5 M 0.5 587.5 L 1532.5 587.5 M 0.5 599.5 L 1532.5 599.5 M 0.5 611.5 L 1532.5 611.5 M 0.5 623.5 L 1532.5 623.5 M 0.5 647.5 L 1532.5 647.5 M 0.5 660.5 L 1532.5 660.5 M 0.5 672.5 L 1532.5 672.5 M 0.5 684.5 L 1532.5 684.5 M 0.5 708.5 L 1532.5 708.5 M 0.5 720.5 L 1532.5 720.5 M 0.5 732.5 L 1532.5 732.5 M 0.5 745.5 L 1532.5 745.5 M 0.5 769.5 L 1532.5 769.5 M 0.5 781.5 L 1532.5 781.5 M 0.5 793.5 L 1532.5 793.5 M 0.5 805.5 L 1532.5 805.5 M 0.5 830.5 L 1532.5 830.5 M 0.5 842.5 L 1532.5 842.5 M 0.5 854.5 L 1532.5 854.5 M 0.5 866.5 L 1532.5 866.5 M 0.5 890.5 L 1532.5 890.5 M 0.5 902.5 L 1532.5 902.5 M 0.5 914.5 L 1532.5 914.5 M 0.5 927.5 L 1532.5 927.5 M 0.5 951.5 L 1532.5 951.5 M 0.5 963.5 L 1532.5 963.5" stroke-opacity="0.23529411764705882" stroke-linecap="round" stroke-linejoin="round" stroke-miterlimit="10"/><path fill="none" stroke="rgb(0,0,0)" paint-order="fill stroke markers" d=" M 636.5 2.5 L 636.5 964.5" stroke-opacity="1" stroke-miterlimit="10"/><path fill="rgb(0,0,0)" stroke="none" paint-order="stroke fill markers" fill-rule="evenodd" d=" M 636.0924930047566 1 L 632.0924930047566 17 L 640.0924930047566 17" fill-opacity="1"/><path fill="none" stroke="rgb(0,0,0)" paint-order="fill stroke markers" d=" M 0.5 635.5 L 1530.5 635.5" stroke-opacity="1" stroke-miterlimit="10"/><path fill="rgb(0,0,0)" stroke="none" paint-order="stroke fill markers" fill-rule="evenodd" d=" M 1531 635.8594505072078 L 1515 631.8594505072078 L 1515 639.8594505072078" fill-opacity="1"/><text fill="none" stroke="rgb(255,255,255)" font-family="geogebra-serif, serif" font-size="14px" font-style="normal" font-weight="bold" text-decoration="normal" x="17" y="653" text-anchor="start" dominant-baseline="alphabetic" stroke-opacity="1" stroke-miterlimit="10" stroke-width="4.666666666666667">–20</text><text fill="rgb(0,0,0)" stroke="none" font-family="geogebra-serif, serif" font-size="14px" font-style="normal" font-weight="bold" text-decoration="normal" x="17" y="653" text-anchor="start" dominant-baseline="alphabetic" fill-opacity="1">–20</text><text fill="none" stroke="rgb(255,255,255)" font-family="geogebra-serif, serif" font-size="14px" font-style="normal" font-weight="bold" text-decoration="normal" x="78" y="653" text-anchor="start" dominant-baseline="alphabetic" stroke-opacity="1" stroke-miterlimit="10" stroke-width="4.666666666666667">–18</text><text fill="rgb(0,0,0)" stroke="none" font-family="geogebra-serif, serif" font-size="14px" font-style="normal" font-weight="bold" text-decoration="normal" x="78" y="653" text-anchor="start" dominant-baseline="alphabetic" fill-opacity="1">–18</text><text fill="none" stroke="rgb(255,255,255)" font-family="geogebra-serif, serif" font-size="14px" font-style="normal" font-weight="bold" text-decoration="normal" x="139" y="653" text-anchor="start" dominant-baseline="alphabetic" stroke-opacity="1" stroke-miterlimit="10" stroke-width="4.666666666666667">–16</text><text fill="rgb(0,0,0)" stroke="none" font-family="geogebra-serif, serif" font-size="14px" font-style="normal" font-weight="bold" text-decoration="normal" x="139" y="653" text-anchor="start" dominant-baseline="alphabetic" fill-opacity="1">–16</text><text fill="none" stroke="rgb(255,255,255)" font-family="geogebra-serif, serif" font-size="14px" font-style="normal" font-weight="bold" text-decoration="normal" x="199" y="653" text-anchor="start" dominant-baseline="alphabetic" stroke-opacity="1" stroke-miterlimit="10" stroke-width="4.666666666666667">–14</text><text fill="rgb(0,0,0)" stroke="none" font-family="geogebra-serif, serif" font-size="14px" font-style="normal" font-weight="bold" text-decoration="normal" x="199" y="653" text-anchor="start" dominant-baseline="alphabetic" fill-opacity="1">–14</text><text fill="none" stroke="rgb(255,255,255)" font-family="geogebra-serif, serif" font-size="14px" font-style="normal" font-weight="bold" text-decoration="normal" x="260" y="653" text-anchor="start" dominant-baseline="alphabetic" stroke-opacity="1" stroke-miterlimit="10" stroke-width="4.666666666666667">–12</text><text fill="rgb(0,0,0)" stroke="none" font-family="geogebra-serif, serif" font-size="14px" font-style="normal" font-weight="bold" text-decoration="normal" x="260" y="653" text-anchor="start" dominant-baseline="alphabetic" fill-opacity="1">–12</text><text fill="none" stroke="rgb(255,255,255)" font-family="geogebra-serif, serif" font-size="14px" font-style="normal" font-weight="bold" text-decoration="normal" x="321" y="653" text-anchor="start" dominant-baseline="alphabetic" stroke-opacity="1" stroke-miterlimit="10" stroke-width="4.666666666666667">–10</text><text fill="rgb(0,0,0)" stroke="none" font-family="geogebra-serif, serif" font-size="14px" font-style="normal" font-weight="bold" text-decoration="normal" x="321" y="653" text-anchor="start" dominant-baseline="alphabetic" fill-opacity="1">–10</text><text fill="none" stroke="rgb(255,255,255)" font-family="geogebra-serif, serif" font-size="14px" font-style="normal" font-weight="bold" text-decoration="normal" x="385" y="653" text-anchor="start" dominant-baseline="alphabetic" stroke-opacity="1" stroke-miterlimit="10" stroke-width="4.666666666666667">–8</text><text fill="rgb(0,0,0)" stroke="none" font-family="geogebra-serif, serif" font-size="14px" font-style="normal" font-weight="bold" text-decoration="normal" x="385" y="653" text-anchor="start" dominant-baseline="alphabetic" fill-opacity="1">–8</text><text fill="none" stroke="rgb(255,255,255)" font-family="geogebra-serif, serif" font-size="14px" font-style="normal" font-weight="bold" text-decoration="normal" x="446" y="653" text-anchor="start" dominant-baseline="alphabetic" stroke-opacity="1" stroke-miterlimit="10" stroke-width="4.666666666666667">–6</text><text fill="rgb(0,0,0)" stroke="none" font-family="geogebra-serif, serif" font-size="14px" font-style="normal" font-weight="bold" text-decoration="normal" x="446" y="653" text-anchor="start" dominant-baseline="alphabetic" fill-opacity="1">–6</text><text fill="none" stroke="rgb(255,255,255)" font-family="geogebra-serif, serif" font-size="14px" font-style="normal" font-weight="bold" text-decoration="normal" x="507" y="653" text-anchor="start" dominant-baseline="alphabetic" stroke-opacity="1" stroke-miterlimit="10" stroke-width="4.666666666666667">–4</text><text fill="rgb(0,0,0)" stroke="none" font-family="geogebra-serif, serif" font-size="14px" font-style="normal" font-weight="bold" text-decoration="normal" x="507" y="653" text-anchor="start" dominant-baseline="alphabetic" fill-opacity="1">–4</text><text fill="none" stroke="rgb(255,255,255)" font-family="geogebra-serif, serif" font-size="14px" font-style="normal" font-weight="bold" text-decoration="normal" x="568" y="653" text-anchor="start" dominant-baseline="alphabetic" stroke-opacity="1" stroke-miterlimit="10" stroke-width="4.666666666666667">–2</text><text fill="rgb(0,0,0)" stroke="none" font-family="geogebra-serif, serif" font-size="14px" font-style="normal" font-weight="bold" text-decoration="normal" x="568" y="653" text-anchor="start" dominant-baseline="alphabetic" fill-opacity="1">–2</text><text fill="none" stroke="rgb(255,255,255)" font-family="geogebra-serif, serif" font-size="14px" font-style="normal" font-weight="bold" text-decoration="normal" x="693" y="653" text-anchor="start" dominant-baseline="alphabetic" stroke-opacity="1" stroke-miterlimit="10" stroke-width="4.666666666666667">2</text><text fill="rgb(0,0,0)" stroke="none" font-family="geogebra-serif, serif" font-size="14px" font-style="normal" font-weight="bold" text-decoration="normal" x="693" y="653" text-anchor="start" dominant-baseline="alphabetic" fill-opacity="1">2</text><text fill="none" stroke="rgb(255,255,255)" font-family="geogebra-serif, serif" font-size="14px" font-style="normal" font-weight="bold" text-decoration="normal" x="754" y="653" text-anchor="start" dominant-baseline="alphabetic" stroke-opacity="1" stroke-miterlimit="10" stroke-width="4.666666666666667">4</text><text fill="rgb(0,0,0)" stroke="none" font-family="geogebra-serif, serif" font-size="14px" font-style="normal" font-weight="bold" text-decoration="normal" x="754" y="653" text-anchor="start" dominant-baseline="alphabetic" fill-opacity="1">4</text><text fill="none" stroke="rgb(255,255,255)" font-family="geogebra-serif, serif" font-size="14px" font-style="normal" font-weight="bold" text-decoration="normal" x="814" y="653" text-anchor="start" dominant-baseline="alphabetic" stroke-opacity="1" stroke-miterlimit="10" stroke-width="4.666666666666667">6</text><text fill="rgb(0,0,0)" stroke="none" font-family="geogebra-serif, serif" font-size="14px" font-style="normal" font-weight="bold" text-decoration="normal" x="814" y="653" text-anchor="start" dominant-baseline="alphabetic" fill-opacity="1">6</text><text fill="none" stroke="rgb(255,255,255)" font-family="geogebra-serif, serif" font-size="14px" font-style="normal" font-weight="bold" text-decoration="normal" x="875" y="653" text-anchor="start" dominant-baseline="alphabetic" stroke-opacity="1" stroke-miterlimit="10" stroke-width="4.666666666666667">8</text><text fill="rgb(0,0,0)" stroke="none" font-family="geogebra-serif, serif" font-size="14px" font-style="normal" font-weight="bold" text-decoration="normal" x="875" y="653" text-anchor="start" dominant-baseline="alphabetic" fill-opacity="1">8</text><text fill="none" stroke="rgb(255,255,255)" font-family="geogebra-serif, serif" font-size="14px" font-style="normal" font-weight="bold" text-decoration="normal" x="932" y="653" text-anchor="start" dominant-baseline="alphabetic" stroke-opacity="1" stroke-miterlimit="10" stroke-width="4.666666666666667">10</text><text fill="rgb(0,0,0)" stroke="none" font-family="geogebra-serif, serif" font-size="14px" font-style="normal" font-weight="bold" text-decoration="normal" x="932" y="653" text-anchor="start" dominant-baseline="alphabetic" fill-opacity="1">10</text><text fill="none" stroke="rgb(255,255,255)" font-family="geogebra-serif, serif" font-size="14px" font-style="normal" font-weight="bold" text-decoration="normal" x="992" y="653" text-anchor="start" dominant-baseline="alphabetic" stroke-opacity="1" stroke-miterlimit="10" stroke-width="4.666666666666667">12</text><text fill="rgb(0,0,0)" stroke="none" font-family="geogebra-serif, serif" font-size="14px" font-style="normal" font-weight="bold" text-decoration="normal" x="992" y="653" text-anchor="start" dominant-baseline="alphabetic" fill-opacity="1">12</text><text fill="none" stroke="rgb(255,255,255)" font-family="geogebra-serif, serif" font-size="14px" font-style="normal" font-weight="bold" text-decoration="normal" x="1053" y="653" text-anchor="start" dominant-baseline="alphabetic" stroke-opacity="1" stroke-miterlimit="10" stroke-width="4.666666666666667">14</text><text fill="rgb(0,0,0)" stroke="none" font-family="geogebra-serif, serif" font-size="14px" font-style="normal" font-weight="bold" text-decoration="normal" x="1053" y="653" text-anchor="start" dominant-baseline="alphabetic" fill-opacity="1">14</text><text fill="none" stroke="rgb(255,255,255)" font-family="geogebra-serif, serif" font-size="14px" font-style="normal" font-weight="bold" text-decoration="normal" x="1114" y="653" text-anchor="start" dominant-baseline="alphabetic" stroke-opacity="1" stroke-miterlimit="10" stroke-width="4.666666666666667">16</text><text fill="rgb(0,0,0)" stroke="none" font-family="geogebra-serif, serif" font-size="14px" font-style="normal" font-weight="bold" text-decoration="normal" x="1114" y="653" text-anchor="start" dominant-baseline="alphabetic" fill-opacity="1">16</text><text fill="none" stroke="rgb(255,255,255)" font-family="geogebra-serif, serif" font-size="14px" font-style="normal" font-weight="bold" text-decoration="normal" x="1174" y="653" text-anchor="start" dominant-baseline="alphabetic" stroke-opacity="1" stroke-miterlimit="10" stroke-width="4.666666666666667">18</text><text fill="rgb(0,0,0)" stroke="none" font-family="geogebra-serif, serif" font-size="14px" font-style="normal" font-weight="bold" text-decoration="normal" x="1174" y="653" text-anchor="start" dominant-baseline="alphabetic" fill-opacity="1">18</text><text fill="none" stroke="rgb(255,255,255)" font-family="geogebra-serif, serif" font-size="14px" font-style="normal" font-weight="bold" text-decoration="normal" x="1235" y="653" text-anchor="start" dominant-baseline="alphabetic" stroke-opacity="1" stroke-miterlimit="10" stroke-width="4.666666666666667">20</text><text fill="rgb(0,0,0)" stroke="none" font-family="geogebra-serif, serif" font-size="14px" font-style="normal" font-weight="bold" text-decoration="normal" x="1235" y="653" text-anchor="start" dominant-baseline="alphabetic" fill-opacity="1">20</text><text fill="none" stroke="rgb(255,255,255)" font-family="geogebra-serif, serif" font-size="14px" font-style="normal" font-weight="bold" text-decoration="normal" x="1296" y="653" text-anchor="start" dominant-baseline="alphabetic" stroke-opacity="1" stroke-miterlimit="10" stroke-width="4.666666666666667">22</text><text fill="rgb(0,0,0)" stroke="none" font-family="geogebra-serif, serif" font-size="14px" font-style="normal" font-weight="bold" text-decoration="normal" x="1296" y="653" text-anchor="start" dominant-baseline="alphabetic" fill-opacity="1">22</text><text fill="none" stroke="rgb(255,255,255)" font-family="geogebra-serif, serif" font-size="14px" font-style="normal" font-weight="bold" text-decoration="normal" x="1356" y="653" text-anchor="start" dominant-baseline="alphabetic" stroke-opacity="1" stroke-miterlimit="10" stroke-width="4.666666666666667">24</text><text fill="rgb(0,0,0)" stroke="none" font-family="geogebra-serif, serif" font-size="14px" font-style="normal" font-weight="bold" text-decoration="normal" x="1356" y="653" text-anchor="start" dominant-baseline="alphabetic" fill-opacity="1">24</text><text fill="none" stroke="rgb(255,255,255)" font-family="geogebra-serif, serif" font-size="14px" font-style="normal" font-weight="bold" text-decoration="normal" x="1417" y="653" text-anchor="start" dominant-baseline="alphabetic" stroke-opacity="1" stroke-miterlimit="10" stroke-width="4.666666666666667">26</text><text fill="rgb(0,0,0)" stroke="none" font-family="geogebra-serif, serif" font-size="14px" font-style="normal" font-weight="bold" text-decoration="normal" x="1417" y="653" text-anchor="start" dominant-baseline="alphabetic" fill-opacity="1">26</text><text fill="none" stroke="rgb(255,255,255)" font-family="geogebra-serif, serif" font-size="14px" font-style="normal" font-weight="bold" text-decoration="normal" x="1478" y="653" text-anchor="start" dominant-baseline="alphabetic" stroke-opacity="1" stroke-miterlimit="10" stroke-width="4.666666666666667">28</text><text fill="rgb(0,0,0)" stroke="none" font-family="geogebra-serif, serif" font-size="14px" font-style="normal" font-weight="bold" text-decoration="normal" x="1478" y="653" text-anchor="start" dominant-baseline="alphabetic" fill-opacity="1">28</text><text fill="none" stroke="rgb(255,255,255)" font-family="geogebra-serif, serif" font-size="14px" font-style="normal" font-weight="bold" text-decoration="normal" x="606" y="945" text-anchor="start" dominant-baseline="alphabetic" stroke-opacity="1" stroke-miterlimit="10" stroke-width="4.666666666666667">–10</text><text fill="rgb(0,0,0)" stroke="none" font-family="geogebra-serif, serif" font-size="14px" font-style="normal" font-weight="bold" text-decoration="normal" x="606" y="945" text-anchor="start" dominant-baseline="alphabetic" fill-opacity="1">–10</text><text fill="none" stroke="rgb(255,255,255)" font-family="geogebra-serif, serif" font-size="14px" font-style="normal" font-weight="bold" text-decoration="normal" x="612" y="884" text-anchor="start" dominant-baseline="alphabetic" stroke-opacity="1" stroke-miterlimit="10" stroke-width="4.666666666666667">–8</text><text fill="rgb(0,0,0)" stroke="none" font-family="geogebra-serif, serif" font-size="14px" font-style="normal" font-weight="bold" text-decoration="normal" x="612" y="884" text-anchor="start" dominant-baseline="alphabetic" fill-opacity="1">–8</text><text fill="none" stroke="rgb(255,255,255)" font-family="geogebra-serif, serif" font-size="14px" font-style="normal" font-weight="bold" text-decoration="normal" x="612" y="823" text-anchor="start" dominant-baseline="alphabetic" stroke-opacity="1" stroke-miterlimit="10" stroke-width="4.666666666666667">–6</text><text fill="rgb(0,0,0)" stroke="none" font-family="geogebra-serif, serif" font-size="14px" font-style="normal" font-weight="bold" text-decoration="normal" x="612" y="823" text-anchor="start" dominant-baseline="alphabetic" fill-opacity="1">–6</text><text fill="none" stroke="rgb(255,255,255)" font-family="geogebra-serif, serif" font-size="14px" font-style="normal" font-weight="bold" text-decoration="normal" x="612" y="763" text-anchor="start" dominant-baseline="alphabetic" stroke-opacity="1" stroke-miterlimit="10" stroke-width="4.666666666666667">–4</text><text fill="rgb(0,0,0)" stroke="none" font-family="geogebra-serif, serif" font-size="14px" font-style="normal" font-weight="bold" text-decoration="normal" x="612" y="763" text-anchor="start" dominant-baseline="alphabetic" fill-opacity="1">–4</text><text fill="none" stroke="rgb(255,255,255)" font-family="geogebra-serif, serif" font-size="14px" font-style="normal" font-weight="bold" text-decoration="normal" x="612" y="702" text-anchor="start" dominant-baseline="alphabetic" stroke-opacity="1" stroke-miterlimit="10" stroke-width="4.666666666666667">–2</text><text fill="rgb(0,0,0)" stroke="none" font-family="geogebra-serif, serif" font-size="14px" font-style="normal" font-weight="bold" text-decoration="normal" x="612" y="702" text-anchor="start" dominant-baseline="alphabetic" fill-opacity="1">–2</text><text fill="none" stroke="rgb(255,255,255)" font-family="geogebra-serif, serif" font-size="14px" font-style="normal" font-weight="bold" text-decoration="normal" x="622" y="581" text-anchor="start" dominant-baseline="alphabetic" stroke-opacity="1" stroke-miterlimit="10" stroke-width="4.666666666666667">2</text><text fill="rgb(0,0,0)" stroke="none" font-family="geogebra-serif, serif" font-size="14px" font-style="normal" font-weight="bold" text-decoration="normal" x="622" y="581" text-anchor="start" dominant-baseline="alphabetic" fill-opacity="1">2</text><text fill="none" stroke="rgb(255,255,255)" font-family="geogebra-serif, serif" font-size="14px" font-style="normal" font-weight="bold" text-decoration="normal" x="621" y="520" text-anchor="start" dominant-baseline="alphabetic" stroke-opacity="1" stroke-miterlimit="10" stroke-width="4.666666666666667">4</text><text fill="rgb(0,0,0)" stroke="none" font-family="geogebra-serif, serif" font-size="14px" font-style="normal" font-weight="bold" text-decoration="normal" x="621" y="520" text-anchor="start" dominant-baseline="alphabetic" fill-opacity="1">4</text><text fill="none" stroke="rgb(255,255,255)" font-family="geogebra-serif, serif" font-size="14px" font-style="normal" font-weight="bold" text-decoration="normal" x="622" y="459" text-anchor="start" dominant-baseline="alphabetic" stroke-opacity="1" stroke-miterlimit="10" stroke-width="4.666666666666667">6</text><text fill="rgb(0,0,0)" stroke="none" font-family="geogebra-serif, serif" font-size="14px" font-style="normal" font-weight="bold" text-decoration="normal" x="622" y="459" text-anchor="start" dominant-baseline="alphabetic" fill-opacity="1">6</text><text fill="none" stroke="rgb(255,255,255)" font-family="geogebra-serif, serif" font-size="14px" font-style="normal" font-weight="bold" text-decoration="normal" x="622" y="399" text-anchor="start" dominant-baseline="alphabetic" stroke-opacity="1" stroke-miterlimit="10" stroke-width="4.666666666666667">8</text><text fill="rgb(0,0,0)" stroke="none" font-family="geogebra-serif, serif" font-size="14px" font-style="normal" font-weight="bold" text-decoration="normal" x="622" y="399" text-anchor="start" dominant-baseline="alphabetic" fill-opacity="1">8</text><text fill="none" stroke="rgb(255,255,255)" font-family="geogebra-serif, serif" font-size="14px" font-style="normal" font-weight="bold" text-decoration="normal" x="616" y="338" text-anchor="start" dominant-baseline="alphabetic" stroke-opacity="1" stroke-miterlimit="10" stroke-width="4.666666666666667">10</text><text fill="rgb(0,0,0)" stroke="none" font-family="geogebra-serif, serif" font-size="14px" font-style="normal" font-weight="bold" text-decoration="normal" x="616" y="338" text-anchor="start" dominant-baseline="alphabetic" fill-opacity="1">10</text><text fill="none" stroke="rgb(255,255,255)" font-family="geogebra-serif, serif" font-size="14px" font-style="normal" font-weight="bold" text-decoration="normal" x="616" y="277" text-anchor="start" dominant-baseline="alphabetic" stroke-opacity="1" stroke-miterlimit="10" stroke-width="4.666666666666667">12</text><text fill="rgb(0,0,0)" stroke="none" font-family="geogebra-serif, serif" font-size="14px" font-style="normal" font-weight="bold" text-decoration="normal" x="616" y="277" text-anchor="start" dominant-baseline="alphabetic" fill-opacity="1">12</text><text fill="none" stroke="rgb(255,255,255)" font-family="geogebra-serif, serif" font-size="14px" font-style="normal" font-weight="bold" text-decoration="normal" x="616" y="217" text-anchor="start" dominant-baseline="alphabetic" stroke-opacity="1" stroke-miterlimit="10" stroke-width="4.666666666666667">14</text><text fill="rgb(0,0,0)" stroke="none" font-family="geogebra-serif, serif" font-size="14px" font-style="normal" font-weight="bold" text-decoration="normal" x="616" y="217" text-anchor="start" dominant-baseline="alphabetic" fill-opacity="1">14</text><text fill="none" stroke="rgb(255,255,255)" font-family="geogebra-serif, serif" font-size="14px" font-style="normal" font-weight="bold" text-decoration="normal" x="616" y="156" text-anchor="start" dominant-baseline="alphabetic" stroke-opacity="1" stroke-miterlimit="10" stroke-width="4.666666666666667">16</text><text fill="rgb(0,0,0)" stroke="none" font-family="geogebra-serif, serif" font-size="14px" font-style="normal" font-weight="bold" text-decoration="normal" x="616" y="156" text-anchor="start" dominant-baseline="alphabetic" fill-opacity="1">16</text><text fill="none" stroke="rgb(255,255,255)" font-family="geogebra-serif, serif" font-size="14px" font-style="normal" font-weight="bold" text-decoration="normal" x="616" y="95" text-anchor="start" dominant-baseline="alphabetic" stroke-opacity="1" stroke-miterlimit="10" stroke-width="4.666666666666667">18</text><text fill="rgb(0,0,0)" stroke="none" font-family="geogebra-serif, serif" font-size="14px" font-style="normal" font-weight="bold" text-decoration="normal" x="616" y="95" text-anchor="start" dominant-baseline="alphabetic" fill-opacity="1">18</text><text fill="none" stroke="rgb(255,255,255)" font-family="geogebra-serif, serif" font-size="14px" font-style="normal" font-weight="bold" text-decoration="normal" x="614" y="35" text-anchor="start" dominant-baseline="alphabetic" stroke-opacity="1" stroke-miterlimit="10" stroke-width="4.666666666666667">20</text><text fill="rgb(0,0,0)" stroke="none" font-family="geogebra-serif, serif" font-size="14px" font-style="normal" font-weight="bold" text-decoration="normal" x="614" y="35" text-anchor="start" dominant-baseline="alphabetic" fill-opacity="1">20</text><text fill="none" stroke="rgb(255,255,255)" font-family="geogebra-serif, serif" font-size="14px" font-style="normal" font-weight="bold" text-decoration="normal" x="622" y="653" text-anchor="start" dominant-baseline="alphabetic" stroke-opacity="1" stroke-miterlimit="10" stroke-width="4.666666666666667">0</text><text fill="rgb(0,0,0)" stroke="none" font-family="geogebra-serif, serif" font-size="14px" font-style="normal" font-weight="bold" text-decoration="normal" x="622" y="653" text-anchor="start" dominant-baseline="alphabetic" fill-opacity="1">0</text><path fill="rgb(0,100,0)" stroke="none" paint-order="stroke fill markers" d=" M 666.0924930047566 635.8594505072078 C 666.0924930047566 623.7922599835658 658.8623037654937 612.8996420355743 647.7420904894789 608.2137116231781 C 636.6218772134641 603.527781210782 623.7764350158157 605.960758182176 615.1400344418265 614.3886684960958 L 636.0924930047566 635.8594505072078 Z" fill-opacity="0.09803921568627451"/><path fill="none" stroke="rgb(0,100,0)" paint-order="fill stroke markers" d=" M 666.0924930047566 635.8594505072078 C 666.0924930047566 623.7922599835658 658.8623037654937 612.8996420355743 647.7420904894789 608.2137116231781 C 636.6218772134641 603.527781210782 623.7764350158157 605.960758182176 615.1400344418265 614.3886684960958 L 636.0924930047566 635.8594505072078 Z" stroke-opacity="0.6980392156862745" stroke-linecap="round" stroke-linejoin="round" stroke-miterlimit="10" stroke-width="2.5"/><text fill="rgb(0,100,0)" stroke="none" font-family="geogebra-sans-serif, sans-serif" font-size="18px" font-style="normal" font-weight="normal" text-decoration="normal" x="661" y="608" text-anchor="start" dominant-baseline="alphabetic" fill-opacity="1">α = 134.3°</text><path fill="none" stroke="rgb(0,0,0)" paint-order="fill stroke markers" d=" M 999.2679636772314 635.8594505072078 L 636.0924930047566 635.8594505072078" stroke-opacity="0.6980392156862745" stroke-linecap="round" stroke-linejoin="round" stroke-miterlimit="10" stroke-width="3.5"/><path fill="none" stroke="rgb(0,0,0)" paint-order="fill stroke markers" d=" M 636.0924930047566 635.8594505072078 L 382.4451929935002 375.93740508748374" stroke-opacity="0.6980392156862745" stroke-linecap="round" stroke-linejoin="round" stroke-miterlimit="10" stroke-width="3.5"/><path fill="rgb(77,77,255)" stroke="none" paint-order="stroke fill markers" d=" M 645.0924930047566 635.8594505072078 C 645.0924930047566 640.830013255685 641.0630557532338 644.8594505072078 636.0924930047566 644.8594505072078 C 631.1219302562795 644.8594505072078 627.0924930047566 640.830013255685 627.0924930047566 635.8594505072078 C 627.0924930047566 630.8888877587307 631.1219302562795 626.8594505072078 636.0924930047566 626.8594505072078 C 641.0630557532338 626.8594505072078 645.0924930047566 630.8888877587307 645.0924930047566 635.8594505072078 Z" fill-opacity="1"/><text fill="rgb(77,77,255)" stroke="none" font-family="geogebra-sans-serif, sans-serif" font-size="18px" font-style="normal" font-weight="normal" text-decoration="normal" x="646" y="661" text-anchor="start" dominant-baseline="alphabetic" fill-opacity="1">N</text><path fill="rgb(255,0,0)" stroke="none" paint-order="stroke fill markers" d=" M 1008.2679636772314 635.8594505072078 C 1008.2679636772314 640.830013255685 1004.2385264257085 644.8594505072078 999.2679636772314 644.8594505072078 C 994.2974009287542 644.8594505072078 990.2679636772314 640.830013255685 990.2679636772314 635.8594505072078 C 990.2679636772314 630.8888877587307 994.2974009287542 626.8594505072078 999.2679636772314 626.8594505072078 C 1004.2385264257085 626.8594505072078 1008.2679636772314 630.8888877587307 1008.2679636772314 635.8594505072078 Z" fill-opacity="1"/><text fill="rgb(255,0,0)" stroke="none" font-family="geogebra-sans-serif, sans-serif" font-size="18px" font-style="normal" font-weight="normal" text-decoration="normal" x="1003" y="618" text-anchor="start" dominant-baseline="alphabetic" fill-opacity="1">O</text><path fill="rgb(255,0,0)" stroke="none" paint-order="stroke fill markers" d=" M 391.4451929935002 375.93740508748374 C 391.4451929935002 380.9079678359609 387.41575574197736 384.93740508748374 382.4451929935002 384.93740508748374 C 377.47463024502304 384.93740508748374 373.4451929935002 380.9079678359609 373.4451929935002 375.93740508748374 C 373.4451929935002 370.9668423390066 377.47463024502304 366.93740508748374 382.4451929935002 366.93740508748374 C 387.41575574197736 366.93740508748374 391.4451929935002 370.9668423390066 391.4451929935002 375.93740508748374 Z" fill-opacity="1"/><text fill="rgb(255,0,0)" stroke="none" font-family="geogebra-sans-serif, sans-serif" font-size="18px" font-style="normal" font-weight="normal" text-decoration="normal" x="386" y="358" text-anchor="start" dominant-baseline="alphabetic" fill-opacity="1">O'</text></g></svg>